<?xml version="1.0" encoding="UTF-8"?>
<svg version="1.1" xmlns="http://www.w3.org/2000/svg" width="866" height="288">
<path d="M0 0 C0.86567093 -0.00350464 1.73134186 -0.00700928 2.62324524 -0.01062012 C5.48865767 -0.01942873 8.35382327 -0.01358617 11.21923828 -0.00683594 C13.2202255 -0.00818406 15.22121239 -0.01012582 17.22219849 -0.01263428 C21.42371732 -0.01558538 25.6251512 -0.01129284 29.82666016 -0.00195312 C35.17690345 0.00936779 40.52694444 0.0029289 45.8771801 -0.00909805 C50.01595538 -0.01638015 54.15468403 -0.01399856 58.29346085 -0.00884247 C60.2635615 -0.00751961 62.23366656 -0.00910518 64.20376205 -0.01380157 C98.44948885 -0.07745219 98.44948885 -0.07745219 108.78955078 9.44628906 C109.32580078 10.37441406 109.86205078 11.30253906 110.41455078 12.25878906 C110.78322266 12.86464844 111.15189453 13.47050781 111.53173828 14.09472656 C114.54151485 20.0104943 114.83554066 25.80834085 114.91455078 32.32128906 C114.94210449 33.57921265 114.94210449 33.57921265 114.97021484 34.86254883 C114.90025067 42.00938902 112.94555622 47.69822209 108.80126953 53.52832031 C100.68849236 60.89509498 89.02682819 62.51406784 78.41455078 63.25878906 C83.50834706 68.89511986 87.05456429 71.86242665 94.85205078 72.57128906 C100.32110081 72.09154783 104.1049649 70.78074022 107.72705078 66.57128906 C108.28392578 65.80816406 108.84080078 65.04503906 109.41455078 64.25878906 C111.41455078 64.25878906 111.41455078 64.25878906 113.61767578 66.35253906 C114.27606445 67.03896484 114.27606445 67.03896484 114.94775391 67.73925781 C116.49610095 69.34327113 118.09540708 70.87935424 119.71142578 72.41503906 C120.86259196 73.52949379 122.01363194 74.6440789 123.16455078 75.75878906 C123.75365234 76.314375 124.34275391 76.86996094 124.94970703 77.44238281 C127.41910104 79.85500914 129.1748989 81.6360643 130.42626953 84.88769531 C130.40389066 89.41568754 128.06018422 92.7146386 125.41455078 96.25878906 C118.18399333 103.25227906 110.76623298 104.6719108 100.95776367 104.62231445 C91.75413813 104.39957424 84.13519949 101.93902382 77.37939453 95.50097656 C73.23722362 90.77412546 69.85934543 85.50059752 66.41455078 80.25878906 C59.66578199 69.4584915 59.66578199 69.4584915 48.66455078 64.00878906 C43.60865019 63.19431268 38.51787575 62.67139832 33.41455078 62.25878906 C33.55497955 63.90509234 33.70204407 65.55083086 33.85205078 67.19628906 C33.93326172 68.1128125 34.01447266 69.02933594 34.09814453 69.97363281 C34.17500054 72.22038638 34.17500054 72.22038638 35.41455078 73.25878906 C37.03884319 73.30673865 38.66496793 73.2956068 40.28955078 73.25878906 C46.05245553 73.19836542 51.68909065 73.63862317 57.41455078 74.25878906 C58.78317557 82.81269397 60.43806424 93.31058528 56.41455078 101.25878906 C53.6723393 104.00100055 52.10880253 103.5293802 48.26831055 103.56518555 C46.97679581 103.58117294 45.68528107 103.59716034 44.35462952 103.6136322 C42.93840935 103.62000802 41.52218446 103.62540104 40.10595703 103.62988281 C38.65868534 103.63884587 37.21141463 103.64796765 35.7641449 103.65724182 C32.7285639 103.67374372 29.69309336 103.68143418 26.6574707 103.68432617 C22.76525868 103.68971395 18.87408263 103.72740299 14.98216343 103.77307034 C11.99244891 103.80279407 9.00298537 103.81004866 6.01313591 103.81105232 C4.57815743 103.81526343 3.14317879 103.82773359 1.70834541 103.84856987 C-0.29753124 103.87538137 -2.30378072 103.86757149 -4.30981445 103.8581543 C-5.45183823 103.86322495 -6.593862 103.86829559 -7.77049255 103.8735199 C-10.58544922 103.25878906 -10.58544922 103.25878906 -12.45639038 100.89450073 C-13.7454605 97.88525351 -13.93079256 95.78519085 -13.87841797 92.52050781 C-13.86875 91.45380859 -13.85908203 90.38710937 -13.84912109 89.28808594 C-13.82398437 88.18529297 -13.79884766 87.0825 -13.77294922 85.94628906 C-13.75941406 84.82416016 -13.74587891 83.70203125 -13.73193359 82.54589844 C-13.69666302 79.78303678 -13.64737156 77.02116078 -13.58544922 74.25878906 C-12.33248047 74.20980469 -11.07951172 74.16082031 -9.78857422 74.11035156 C-8.13751101 74.03530323 -6.48647041 73.9597563 -4.83544922 73.88378906 C-4.01044922 73.85285156 -3.18544922 73.82191406 -2.33544922 73.79003906 C-1.53623047 73.75136719 -0.73701172 73.71269531 0.08642578 73.67285156 C0.81958008 73.64143066 1.55273438 73.61000977 2.30810547 73.57763672 C4.7614801 73.20627519 6.36104857 72.66154929 8.41455078 71.25878906 C10.58259288 66.27064599 9.60048093 59.74171561 9.59985352 54.41430664 C9.60203989 52.33166054 9.62021668 50.24954469 9.63916016 48.16699219 C9.64109375 46.84763672 9.64302734 45.52828125 9.64501953 44.16894531 C9.64912842 42.96375244 9.6532373 41.75855957 9.6574707 40.5168457 C9.41759255 37.29958548 8.8973616 35.10937621 7.41455078 32.25878906 C3.31845776 29.78137473 -1.23211134 29.83393224 -5.89794922 29.63378906 C-6.63851562 29.59511719 -7.37908203 29.55644531 -8.14208984 29.51660156 C-9.95616231 29.42297202 -11.77077038 29.33982055 -13.58544922 29.25878906 C-13.61450846 25.50880536 -13.63226796 21.75885069 -13.64794922 18.00878906 C-13.65632813 16.9453125 -13.66470703 15.88183594 -13.67333984 14.78613281 C-13.6765625 13.76132813 -13.67978516 12.73652344 -13.68310547 11.68066406 C-13.68834229 10.73803711 -13.6935791 9.79541016 -13.69897461 8.82421875 C-13.50628074 4.46975179 -13.50628074 4.46975179 -12.58544922 2.25878906 C-8.81050384 -0.47999479 -4.45758297 -0.02215523 0 0 Z M33.41455078 31.25878906 C33.01160531 33.85563751 33.01160531 33.85563751 33.16455078 36.75878906 C33.18001953 37.73847656 33.19548828 38.71816406 33.21142578 39.72753906 C33.25508648 42.25172342 33.25508648 42.25172342 34.41455078 44.25878906 C41.60442335 44.33481126 48.79419238 44.38737721 55.984375 44.42358398 C58.43070346 44.43867676 60.87700485 44.45915308 63.32324219 44.48510742 C66.83812135 44.52146824 70.35264296 44.53851068 73.86767578 44.55175781 C74.96259338 44.56724167 76.05751099 44.58272552 77.18560791 44.59867859 C78.71674225 44.59901848 78.71674225 44.59901848 80.27880859 44.59936523 C81.17593567 44.60602707 82.07306274 44.6126889 82.99737549 44.61955261 C85.93435928 44.18120761 87.28393365 43.30166497 89.41455078 41.25878906 C90.32919416 38.18820057 90.63106667 36.12485263 89.85205078 33.00878906 C87.68766092 30.37387967 85.72722945 30.10083803 82.41455078 29.25878906 C78.89877492 28.97444992 75.39736096 28.97838485 71.87158203 28.99316406 C70.86616867 28.99125061 69.86075531 28.98933716 68.82487488 28.98736572 C66.70771025 28.98600885 64.59053716 28.98967042 62.47338867 28.99804688 C59.22767591 29.00878699 55.98251242 28.99811733 52.73681641 28.98535156 C50.67757039 28.98667259 48.61832472 28.9892338 46.55908203 28.99316406 C45.58719437 28.9891156 44.6153067 28.98506714 43.6139679 28.980896 C42.71260605 28.98720032 41.8112442 28.99350464 40.88256836 29 C40.09014236 29.00159119 39.29771637 29.00318237 38.48127747 29.00482178 C36.10687117 29.13957559 36.10687117 29.13957559 33.41455078 31.25878906 Z " fill="#FEFEE3" transform="translate(95.58544921875,89.7412109375)"/>
<path d="M0 0 C1.11140099 -0.00855011 1.11140099 -0.00855011 2.24525452 -0.01727295 C3.81119361 -0.02671035 5.37715245 -0.03325193 6.94311523 -0.03710938 C9.33547596 -0.04682553 11.72698106 -0.07786358 14.11914062 -0.109375 C15.64192199 -0.11590448 17.16470949 -0.12115517 18.6875 -0.125 C19.75797829 -0.1435202 19.75797829 -0.1435202 20.8500824 -0.16241455 C23.94456765 -0.14856846 26.09620754 0.03020459 28.83032227 1.53613281 C31.92666151 4.80329467 31.5540267 8.3729987 31.59960938 12.64648438 C31.61204933 13.62014702 31.61204933 13.62014702 31.6247406 14.61347961 C31.64211974 16.02121057 31.65729238 17.4289701 31.67051697 18.83674622 C31.69157013 21.06421389 31.71859033 23.29153818 31.74719238 25.5189209 C31.81697791 31.05032203 31.87640521 36.581826 31.93621826 42.11334229 C31.98716733 46.7886612 32.04200066 51.46390304 32.10203552 56.13911438 C32.12860372 58.33437811 32.14942114 60.52964911 32.17004395 62.72497559 C32.18664782 64.06990912 32.20351974 65.41483937 32.22070312 66.75976562 C32.2332312 67.93430298 32.24575928 69.10884033 32.25866699 70.31896973 C32.2855832 73.27279215 32.2855832 73.27279215 33.41015625 76.203125 C36.28359062 78.11874791 37.18519166 78.49523399 40.421875 78.8359375 C41.55786133 78.96162109 41.55786133 78.96162109 42.71679688 79.08984375 C43.50248047 79.16847656 44.28816406 79.24710937 45.09765625 79.328125 C46.29358398 79.45767578 46.29358398 79.45767578 47.51367188 79.58984375 C49.47838951 79.80160972 51.44418421 80.00333973 53.41015625 80.203125 C53.49722517 83.47379066 53.55056866 86.74415865 53.59765625 90.015625 C53.62279297 90.94439453 53.64792969 91.87316406 53.67382812 92.83007812 C53.68349609 93.72275391 53.69316406 94.61542969 53.703125 95.53515625 C53.71883545 96.35733643 53.7345459 97.1795166 53.75073242 98.02661133 C53.41015625 100.203125 53.41015625 100.203125 52.34814453 101.9699707 C49.41503993 103.83632386 46.47707394 103.63130818 43.109375 103.6015625 C42.3953804 103.60443268 41.6813858 103.60730286 40.945755 103.61026001 C39.43526415 103.61230025 37.92474686 103.60677305 36.41430664 103.59423828 C34.11608795 103.5782532 31.81964668 103.59404977 29.52148438 103.61328125 C28.0507774 103.61129742 26.58007152 103.60745086 25.109375 103.6015625 C24.42791916 103.60763519 23.74646332 103.61370789 23.0443573 103.6199646 C18.4579078 103.55329521 15.30483579 102.61512325 11.41015625 100.203125 C9.94921875 97.94140625 9.94921875 97.94140625 9.03515625 95.515625 C8.71804688 94.70738281 8.4009375 93.89914063 8.07421875 93.06640625 C7.85507812 92.45152344 7.6359375 91.83664063 7.41015625 91.203125 C6.77400391 91.89148438 6.77400391 91.89148438 6.125 92.59375 C-2.1187947 101.21802753 -10.14893495 104.16922957 -22.0234375 104.50390625 C-24.35803135 104.51837416 -26.69271396 104.52207069 -29.02734375 104.515625 C-30.77241211 104.53979492 -30.77241211 104.53979492 -32.55273438 104.56445312 C-42.97852762 104.5703202 -51.39890762 103.08087153 -59.54296875 96.30859375 C-67.87433253 87.73873673 -68.79185828 79.43016763 -68.83984375 68.015625 C-68.86046875 66.80841797 -68.88109375 65.60121094 -68.90234375 64.35742188 C-68.95161034 53.09384767 -66.85785432 46.67176309 -58.97265625 38.40625 C-48.42477267 28.65378059 -32.60207513 29.53892791 -19.08203125 30.05517578 C-9.21542661 30.64090878 0.17838946 31.85241468 7.41015625 39.203125 C9.13600359 37.47727766 8.66350695 35.24103133 8.72265625 32.890625 C8.76003906 31.92511719 8.79742187 30.95960937 8.8359375 29.96484375 C8.59108179 27.14470989 8.59108179 27.14470989 6.9375 24.89453125 C3.27452684 22.44311335 -0.0182501 22.53196004 -4.33984375 22.453125 C-5.52900391 22.40865234 -5.52900391 22.40865234 -6.7421875 22.36328125 C-8.69086469 22.29284713 -10.6403587 22.24569018 -12.58984375 22.203125 C-12.64374732 19.26538037 -12.68346925 16.32862268 -12.71484375 13.390625 C-12.73160156 12.55724609 -12.74835938 11.72386719 -12.765625 10.86523438 C-12.77529297 9.66157227 -12.77529297 9.66157227 -12.78515625 8.43359375 C-12.8008667 7.32600708 -12.8008667 7.32600708 -12.81689453 6.19604492 C-12.58984375 4.203125 -12.58984375 4.203125 -10.58984375 1.203125 C-7.01184433 0.01045853 -3.72606052 0.02212634 0 0 Z M-44.27685547 56.58911133 C-46.87830024 59.78698254 -46.87064695 63.21281981 -46.8046875 67.20703125 C-46.48334904 70.19255768 -45.49293118 71.90629535 -43.58984375 74.203125 C-37.19476222 78.79446558 -30.99728242 78.38583928 -23.40234375 78.390625 C-21.89704102 78.40899414 -21.89704102 78.40899414 -20.36132812 78.42773438 C-9.14119036 78.47911858 -9.14119036 78.47911858 0.84765625 73.953125 C3.66148897 70.93340208 4.83814208 69.28894048 5.41015625 65.203125 C4.28636877 60.85781341 2.95491489 58.19235386 -0.83984375 55.828125 C-7.26450457 52.30985836 -15.35522362 53.02044835 -22.46484375 53.015625 C-23.40714844 53.00337891 -24.34945312 52.99113281 -25.3203125 52.97851562 C-35.36710079 52.73675385 -35.36710079 52.73675385 -44.27685547 56.58911133 Z " fill="#FEFEE4" transform="translate(413.58984375,89.796875)"/>
<path d="M0 0 C0.96465179 -0.00960754 1.92930359 -0.01921509 2.92318726 -0.02911377 C3.96383331 -0.03336365 5.00447937 -0.03761353 6.07666016 -0.04199219 C7.14816315 -0.04769226 8.21966614 -0.05339233 9.32363892 -0.05926514 C11.59156303 -0.06871456 13.85950088 -0.07524889 16.12744141 -0.07910156 C19.59513303 -0.08880955 23.06223259 -0.11983502 26.52978516 -0.15136719 C28.73290664 -0.15789709 30.93603235 -0.16314761 33.13916016 -0.16699219 C34.17575775 -0.17933899 35.21235535 -0.19168579 36.28036499 -0.20440674 C45.49998945 -0.17591008 45.49998945 -0.17591008 49.24072266 3.16113281 C50.49505724 6.92413655 50.34767688 10.4332419 50.30322266 14.34863281 C50.29871094 15.09822266 50.29419922 15.8478125 50.28955078 16.62011719 C50.2777862 18.46715664 50.25985131 20.31415494 50.24072266 22.16113281 C45.29072266 22.49113281 40.34072266 22.82113281 35.24072266 23.16113281 C37.00364411 32.62490258 37.00364411 32.62490258 41.24072266 41.16113281 C45.17573937 43.37676389 48.78616033 43.43033351 53.24072266 43.41113281 C55.03509766 43.41886719 55.03509766 43.41886719 56.86572266 43.42675781 C60.2290395 43.16205232 62.35439062 42.89696886 65.24072266 41.16113281 C66.89257749 38.54169818 66.89257749 38.54169818 67.99072266 35.41113281 C68.39806641 34.38503906 68.80541016 33.35894531 69.22509766 32.30175781 C70.46222088 28.73916465 70.46222088 28.73916465 71.24072266 23.16113281 C65.96072266 22.83113281 60.68072266 22.50113281 55.24072266 22.16113281 C54.74572266 13.25113281 54.74572266 13.25113281 54.24072266 4.16113281 C54.90072266 4.16113281 55.56072266 4.16113281 56.24072266 4.16113281 C56.57072266 3.17113281 56.90072266 2.18113281 57.24072266 1.16113281 C59.99359945 0.11915729 62.64131606 0.03091913 65.56274414 0.01586914 C66.40719589 0.00948929 67.25164764 0.00310944 68.12168884 -0.00346375 C69.02593094 -0.00457657 69.93017303 -0.00568939 70.86181641 -0.00683594 C72.26718407 -0.01182854 72.26718407 -0.01182854 73.70094299 -0.016922 C75.68042511 -0.0219795 77.65991573 -0.02433069 79.6394043 -0.02416992 C82.66355455 -0.02635658 85.68734003 -0.04452526 88.71142578 -0.06347656 C90.63655474 -0.06641071 92.56168544 -0.06839536 94.48681641 -0.06933594 C95.8401432 -0.08011421 95.8401432 -0.08011421 97.22080994 -0.09111023 C105.33213132 -0.06166778 105.33213132 -0.06166778 109.24072266 2.16113281 C110.38899116 4.45766981 110.35633441 5.74426448 110.33837891 8.29394531 C110.33354492 9.50244141 110.33354492 9.50244141 110.32861328 10.73535156 C110.31604492 11.99798828 110.31604492 11.99798828 110.30322266 13.28613281 C110.29871094 14.135625 110.29419922 14.98511719 110.28955078 15.86035156 C110.2777514 17.9606419 110.25981572 20.06089612 110.24072266 22.16113281 C109.40927734 22.22171875 108.57783203 22.28230469 107.72119141 22.34472656 C106.09117187 22.47041016 106.09117187 22.47041016 104.42822266 22.59863281 C103.34927734 22.67984375 102.27033203 22.76105469 101.15869141 22.84472656 C98.18082361 23.06325743 98.18082361 23.06325743 95.24072266 24.16113281 C93.02444081 27.30086543 91.58562236 30.65166256 90.08837891 34.17626953 C85.33610767 45.30413967 80.35213221 56.34607041 75.13818359 67.26513672 C74.18979083 69.26873253 73.26680766 71.28314338 72.34228516 73.29785156 C68.0482261 82.47711098 63.16507159 92.81292347 53.42822266 97.22363281 C47.01789907 99.1090221 41.36287831 99.37866333 34.67822266 99.41113281 C33.64375 99.43175781 32.60927734 99.45238281 31.54345703 99.47363281 C22.53036131 99.51878295 13.11831936 98.5196548 5.80712891 92.75878906 C1.75279182 88.62356744 -2.70366115 82.94194256 -2.82177734 77.03613281 C-2.80115234 76.08738281 -2.78052734 75.13863281 -2.75927734 74.16113281 C-0.43193961 72.81644879 1.90161808 71.48515427 4.24072266 70.16113281 C5.63097656 69.36835938 5.63097656 69.36835938 7.04931641 68.55957031 C8.01998047 68.01558594 8.99064453 67.47160156 9.99072266 66.91113281 C11.37517578 66.12996094 11.37517578 66.12996094 12.78759766 65.33300781 C15.24072266 64.16113281 15.24072266 64.16113281 18.24072266 64.16113281 C19.08707682 65.88639323 19.93343099 67.61165365 20.77978516 69.33691406 C23.29736896 72.48052806 26.34703444 73.90641717 30.33349609 74.44262695 C32.66468812 74.56352788 34.96932405 74.57059563 37.30322266 74.53613281 C38.09277344 74.54773438 38.88232422 74.55933594 39.69580078 74.57128906 C44.35113036 74.54787584 47.46676997 74.17735231 51.24072266 71.16113281 C51.57072266 70.50113281 51.90072266 69.84113281 52.24072266 69.16113281 C50.96197266 69.08636719 49.68322266 69.01160156 48.36572266 68.93457031 C31.56924108 67.73352 31.56924108 67.73352 26.84619141 63.21582031 C20.27777358 54.80952401 15.54948813 45.17783902 10.74121094 35.69750977 C7.23412972 28.32310419 7.23412972 28.32310419 1.24072266 23.16113281 C-0.79675365 22.93255168 -2.83968037 22.75089003 -4.88427734 22.59863281 C-6.52783203 22.47294922 -6.52783203 22.47294922 -8.20458984 22.34472656 C-9.46916016 22.25384766 -9.46916016 22.25384766 -10.75927734 22.16113281 C-10.8403538 19.410539 -10.89980547 16.6623426 -10.94677734 13.91113281 C-10.97191406 13.13382813 -10.99705078 12.35652344 -11.02294922 11.55566406 C-11.06754704 8.07703422 -11.09358015 5.78832037 -9.43505859 2.67675781 C-6.53846514 0.05699497 -3.72748057 0.02998721 0 0 Z " fill="#FDFEE4" transform="translate(472.75927734375,120.8388671875)"/>
<path d="M0 0 C1.31427979 -0.01772461 2.62855957 -0.03544922 3.98266602 -0.05371094 C17.93731559 -0.0431652 30.43644747 2.28476788 40.70703125 12.140625 C45.87324455 19.41256068 45.74154407 27.07959249 45.875 35.6875 C45.9258411 38.02873252 45.9803361 40.3698895 46.0390625 42.7109375 C46.05662598 43.73880371 46.07418945 44.76666992 46.09228516 45.82568359 C46.08785925 48.31297328 46.08785925 48.31297328 47.25 50.3125 C49.26822917 50.21484375 51.28645833 50.1171875 53.3046875 50.01953125 C53.94664062 50.11621094 54.58859375 50.21289062 55.25 50.3125 C57.76630674 54.08696012 57.84623892 57.41834508 58.125 61.8125 C58.23328125 62.97072266 58.23328125 62.97072266 58.34375 64.15234375 C58.4921875 66.40625 58.4921875 66.40625 58.25 70.3125 C55.45252524 73.36429065 52.42736998 74.23076003 48.32421875 74.515625 C36.73471121 74.67603341 36.73471121 74.67603341 32.25 71.3125 C29.56174004 68.54872712 27.38851746 65.52027619 25.25 62.3125 C24.71632813 62.69921875 24.18265625 63.0859375 23.6328125 63.484375 C10.80421629 72.45107547 -1.80766789 74.67794924 -17.25463867 74.62817383 C-19.3128698 74.62499943 -21.36967826 74.64860745 -23.42773438 74.67382812 C-33.67088847 74.72394125 -41.96471547 73.60722215 -50.0859375 67.0390625 C-53.99413658 62.9840766 -54.88249217 58.23440793 -55.125 52.75 C-54.90231339 47.12474269 -53.12005442 42.99570971 -49.5625 38.625 C-41.55732281 32.04296542 -33.79434642 31.43576291 -23.75 30.6875 C-22.32986184 30.56874102 -20.90985819 30.44836302 -19.48999023 30.32641602 C-12.77932415 29.75768646 -6.06328049 29.26007229 0.65234375 28.75390625 C1.76287109 28.6677002 2.87339844 28.58149414 4.01757812 28.49267578 C6.09494234 28.33364158 8.17309408 28.18451359 10.25195312 28.04638672 C11.16783203 27.97822754 12.08371094 27.91006836 13.02734375 27.83984375 C14.22218384 27.75851196 14.22218384 27.75851196 15.44116211 27.67553711 C16.03807861 27.55573486 16.63499512 27.43593262 17.25 27.3125 C17.58 26.6525 17.91 25.9925 18.25 25.3125 C16.12356687 23.18606687 11.33907628 24.14828538 8.39453125 24.14453125 C7.5001384 24.14120285 6.60574554 24.13787445 5.68424988 24.13444519 C3.78519201 24.12936996 1.88612519 24.12703705 -0.01293945 24.12719727 C-2.90786689 24.12502226 -5.80240628 24.10690488 -8.69726562 24.08789062 C-10.54166536 24.08495446 -12.38606691 24.08297116 -14.23046875 24.08203125 C-15.09318893 24.07484573 -15.95590912 24.06766022 -16.84477234 24.06025696 C-21.50448494 24.07780069 -25.43446825 24.32672995 -29.75 26.3125 C-30.44802734 27.59253906 -30.44802734 27.59253906 -31.16015625 28.8984375 C-31.68480469 29.69507813 -32.20945313 30.49171875 -32.75 31.3125 C-35.48076193 31.84063371 -37.46991985 32.01566626 -40.1875 31.9375 C-42.16556641 31.95683594 -42.16556641 31.95683594 -44.18359375 31.9765625 C-47.75 31.3125 -47.75 31.3125 -50.25390625 29.05078125 C-52.33795148 25.23637993 -51.72278404 23.53249287 -50.578125 19.51953125 C-48.41165425 13.74568233 -44.74608101 9.79568324 -39.75 6.3125 C-39.22148437 5.93996094 -38.69296875 5.56742187 -38.1484375 5.18359375 C-27.24400341 -1.3254407 -12.23256868 0.10059767 0 0 Z M16.29833984 38.63330078 C6.88216821 41.10550869 -2.39776858 42.05473003 -12.10571289 42.62841797 C-17.61968968 42.97089017 -22.51445857 43.51788098 -27.75 45.3125 C-28.4314823 47.20429203 -28.4314823 47.20429203 -28.75 49.3125 C-26.07346441 51.98903559 -24.0178085 51.57137417 -20.37792969 51.59130859 C-19.53133789 51.58180176 -18.68474609 51.57229492 -17.8125 51.5625 C-16.5136084 51.55017334 -16.5136084 51.55017334 -15.18847656 51.53759766 C-0.85907313 51.28794713 12.42170876 47.68106134 24.25 39.3125 C23.755 38.3225 23.755 38.3225 23.25 37.3125 C20.79178389 37.3125 18.65770202 37.99792605 16.29833984 38.63330078 Z " fill="#FDFDE4" transform="translate(283.75,119.6875)"/>
<path d="M0 0 C7.31105913 8.28942471 7.60010385 21.08131384 7.31640625 31.578125 C6.59835561 41.40516086 5.46816718 49.43486804 -1.79296875 56.55078125 C-13.20084651 65.87888346 -28.29565995 64.66655719 -42.24389648 64.63598633 C-45.25216078 64.63283072 -48.25943511 64.65632907 -51.26757812 64.68164062 C-80.17308083 64.77762558 -80.17308083 64.77762558 -89.95703125 56.3203125 C-98.07514472 48.03524554 -99.01684625 39.01948144 -99.20703125 27.7578125 C-98.97912576 17.24883707 -98.05091131 7.57447523 -90.95703125 -0.6796875 C-84.66882519 -5.98777038 -77.99743708 -7.81969564 -69.95703125 -8.6796875 C-69.26544922 -8.76436279 -68.57386719 -8.84903809 -67.86132812 -8.9362793 C-47.54515683 -11.25712543 -16.65377376 -14.29365812 0 0 Z M-72.95703125 17.3203125 C-75.10867828 20.54778305 -75.22948204 21.52536889 -75.20703125 25.2578125 C-75.2121875 26.11246094 -75.21734375 26.96710938 -75.22265625 27.84765625 C-74.9389081 30.48901772 -74.39859742 32.0987208 -72.95703125 34.3203125 C-64.44124411 38.36531139 -53.59374628 37.47862287 -44.39453125 37.4453125 C-43.32267578 37.44917969 -42.25082031 37.45304687 -41.14648438 37.45703125 C-28.69178258 38.05491845 -28.69178258 38.05491845 -17.95703125 33.3203125 C-16.37525906 29.67567612 -15.55520478 26.17570253 -16.40625 22.24609375 C-17.75383599 18.8450434 -18.88719275 17.3668715 -21.95703125 15.3203125 C-26.39161695 14.06032146 -30.90100013 14.14210812 -35.4765625 14.1171875 C-36.29396408 14.11148743 -37.11136566 14.10578735 -37.95353699 14.09991455 C-39.67905393 14.09049409 -41.40458862 14.08394235 -43.13012695 14.08007812 C-45.75048696 14.07038296 -48.37005847 14.03933638 -50.99023438 14.0078125 C-52.67317247 14.00128028 -54.35611612 13.99603067 -56.0390625 13.9921875 C-57.20040459 13.9736673 -57.20040459 13.9736673 -58.38520813 13.95477295 C-63.86674733 13.97688266 -67.97054646 14.99035163 -72.95703125 17.3203125 Z " fill="#FEFEE4" transform="translate(795.95703125,129.6796875)"/>
<path d="M0 0 C8.44523001 8.46178929 9.0333068 18.06127347 9.125 29.5 C8.9326743 48.75180283 8.9326743 48.75180283 2.16796875 55.94921875 C-10.11208408 67.14919046 -24.5574229 66.35014862 -40.28686523 66.31567383 C-43.29512953 66.31251822 -46.30240386 66.33601657 -49.31054688 66.36132812 C-64.5404566 66.41190127 -79.20944006 66.39986839 -90.8125 55.3125 C-99.16508695 42.66429691 -97.73342743 26.64457016 -95.046875 12.48046875 C-93.48867109 7.30002217 -90.79838162 3.31508887 -86.6875 -0.1875 C-86.15511719 -0.65542969 -85.62273438 -1.12335938 -85.07421875 -1.60546875 C-79.82579708 -5.13406863 -74.54294095 -6.55748803 -68.3125 -7.1875 C-67.55775391 -7.26645508 -66.80300781 -7.34541016 -66.02539062 -7.42675781 C-16.34388382 -11.95573495 -16.34388382 -11.95573495 0 0 Z M-71 19 C-73.82368571 23.23552856 -73.66653757 27.02477314 -73 32 C-71.20353146 34.93423195 -70.0558929 36.47205355 -67 38 C-58.6894418 39.09048685 -50.30632047 39.18255096 -41.9375 39.1875 C-40.84373047 39.19974609 -39.74996094 39.21199219 -38.62304688 39.22460938 C-28.14142768 39.30247647 -28.14142768 39.30247647 -18 37 C-14.63101776 33.27663282 -14 29.91704457 -14 25 C-14.7714319 21.84414222 -15.50915915 20.45811813 -17.875 18.25 C-22.50165814 15.52843639 -27.40455716 15.82443806 -32.640625 15.796875 C-33.48163757 15.79117493 -34.32265015 15.78547485 -35.18914795 15.77960205 C-36.96772002 15.77016808 -38.74630944 15.76362444 -40.52490234 15.75976562 C-43.22655301 15.75008402 -45.92743473 15.71905579 -48.62890625 15.6875 C-50.36197468 15.68096677 -52.09504852 15.67571756 -53.828125 15.671875 C-54.62736389 15.6595282 -55.42660278 15.6471814 -56.25006104 15.63446045 C-61.80215376 15.65617621 -65.95220766 16.63085468 -71 19 Z " fill="#FEFEE4" transform="translate(684,128)"/>
<path d="M0 0 C0.66 0.66 1.32 1.32 2 2 C0.92598892 4.91517292 0.22189824 6.77810176 -2 9 C-4.98095703 9.22705078 -4.98095703 9.22705078 -8.7578125 9.1953125 C-9.42086395 9.1924826 -10.08391541 9.18965271 -10.76705933 9.18673706 C-12.88655583 9.17553435 -15.00563104 9.15043051 -17.125 9.125 C-18.56119182 9.11497028 -19.99739025 9.10584441 -21.43359375 9.09765625 C-24.95586628 9.075595 -28.47789203 9.04106494 -32 9 C-32 8.67 -32 8.34 -32 8 C-31.16750732 7.98541748 -30.33501465 7.97083496 -29.47729492 7.95581055 C-26.38510347 7.8947137 -23.29357918 7.82055444 -20.2019043 7.73754883 C-18.2070937 7.68798681 -16.21192743 7.65348867 -14.21679688 7.61914062 C-12.96318359 7.58369141 -11.70957031 7.54824219 -10.41796875 7.51171875 C-9.26063232 7.48553467 -8.1032959 7.45935059 -6.91088867 7.43237305 C-4.00913219 7.23760411 -4.00913219 7.23760411 -2.1418457 5.60473633 C-0.83108254 3.76260542 -0.38196747 2.2154113 0 0 Z " fill="#F9FAEC" transform="translate(152,184)"/>
<path d="M0 0 C0.33 0 0.66 0 1 0 C1.22142255 1.95689659 1.4267568 3.91561952 1.625 5.875 C1.74101563 6.96554688 1.85703125 8.05609375 1.9765625 9.1796875 C1.98429688 10.11039063 1.99203125 11.04109375 2 12 C1.34 12.66 0.68 13.32 0 14 C-1.24377393 11.51245214 -1.13306235 9.77344699 -1.125 7 C-1.12757813 6.113125 -1.13015625 5.22625 -1.1328125 4.3125 C-1 2 -1 2 0 0 Z " fill="#EFF0E0" transform="translate(698,152)"/>
<path d="M0 0 C0.66 0.66 1.32 1.32 2 2 C-4.625 5.125 -4.625 5.125 -8 4 C-5.36 2.68 -2.72 1.36 0 0 Z " fill="#FCFBF0" transform="translate(243,153)"/>
<path d="" fill="#FFFFFF" transform="translate(0,0)"/>
<path d="" fill="#FFFFFF" transform="translate(0,0)"/>
<path d="" fill="#FFFFFF" transform="translate(0,0)"/>
<path d="" fill="#FFFFFF" transform="translate(0,0)"/>
<path d="" fill="#FFFFFF" transform="translate(0,0)"/>
<path d="" fill="#FFFFFF" transform="translate(0,0)"/>
<path d="" fill="#FFFFFF" transform="translate(0,0)"/>
<path d="" fill="#FFFFFF" transform="translate(0,0)"/>
<path d="" fill="#FFFFFF" transform="translate(0,0)"/>
<path d="" fill="#FFFFFF" transform="translate(0,0)"/>
<path d="" fill="#FFFFFF" transform="translate(0,0)"/>
<path d="" fill="#FFFFFF" transform="translate(0,0)"/>
<path d="" fill="#FFFFFF" transform="translate(0,0)"/>
<path d="" fill="#FFFFFF" transform="translate(0,0)"/>
<path d="" fill="#FFFFFF" transform="translate(0,0)"/>
<path d="" fill="#FFFFFF" transform="translate(0,0)"/>
</svg>
